<?xml version="1.0" standalone="no"?>
<!DOCTYPE svg PUBLIC "-//W3C//DTD SVG 1.1//EN" "http://www.w3.org/Graphics/SVG/1.1/DTD/svg11.dtd">

<svg width="800" height="600" version="1.1" xmlns="http://www.w3.org/2000/svg">
	<ellipse stroke="black" stroke-width="1" fill="none" cx="71.5" cy="347.5" rx="30" ry="30"/>
	<text x="67.5" y="353.5" font-family="Times New Roman" font-size="20">a</text>
	<ellipse stroke="black" stroke-width="1" fill="none" cx="71.5" cy="164.5" rx="30" ry="30"/>
	<text x="66.5" y="170.5" font-family="Times New Roman" font-size="20">b</text>
	<ellipse stroke="black" stroke-width="1" fill="none" cx="260.5" cy="347.5" rx="30" ry="30"/>
	<text x="256.5" y="353.5" font-family="Times New Roman" font-size="20">c</text>
	<ellipse stroke="black" stroke-width="1" fill="none" cx="260.5" cy="164.5" rx="30" ry="30"/>
	<text x="255.5" y="170.5" font-family="Times New Roman" font-size="20">d</text>
	<ellipse stroke="black" stroke-width="1" fill="none" cx="449.5" cy="347.5" rx="30" ry="30"/>
	<text x="446.5" y="353.5" font-family="Times New Roman" font-size="20">f</text>
	<ellipse stroke="black" stroke-width="1" fill="none" cx="449.5" cy="303.5" rx="30" ry="30"/>
	<text x="445.5" y="309.5" font-family="Times New Roman" font-size="20">e</text>
	<polygon stroke="black" stroke-width="1" points="71.5,317.5 71.5,194.5"/>
	<polygon fill="black" stroke-width="1" points="71.5,194.5 66.5,202.5 76.5,202.5"/>
	<text x="76.5" y="262.5" font-family="Times New Roman" font-size="20">optional</text>
	<path stroke="black" stroke-width="1" fill="none" d="M 58.275,137.703 A 22.5,22.5 0 1 1 84.725,137.703"/>
	<polygon fill="black" stroke-width="1" points="84.725,137.703 93.473,134.17 85.382,128.292"/>
	<polygon stroke="black" stroke-width="1" points="101.5,347.5 230.5,347.5"/>
	<polygon fill="black" stroke-width="1" points="230.5,347.5 222.5,342.5 222.5,352.5"/>
	<polygon stroke="black" stroke-width="1" points="93.053,185.368 238.947,326.632"/>
	<polygon fill="black" stroke-width="1" points="238.947,326.632 236.678,317.475 229.722,324.659"/>
	<path stroke="black" stroke-width="1" fill="none" d="M 247.275,320.703 A 22.5,22.5 0 1 1 273.725,320.703"/>
	<polygon fill="black" stroke-width="1" points="273.725,320.703 282.473,317.17 274.382,311.292"/>
	<polygon stroke="black" stroke-width="1" points="260.5,317.5 260.5,194.5"/>
	<polygon fill="black" stroke-width="1" points="260.5,194.5 255.5,202.5 265.5,202.5"/>
	<text x="265.5" y="262.5" font-family="Times New Roman" font-size="20">optional</text>
	<polygon stroke="black" stroke-width="1" points="290.5,347.5 419.5,347.5"/>
	<polygon fill="black" stroke-width="1" points="419.5,347.5 411.5,342.5 411.5,352.5"/>
	<polygon stroke="black" stroke-width="1" points="284.668,182.274 425.332,285.726"/>
	<polygon fill="black" stroke-width="1" points="425.332,285.726 421.85,276.958 415.925,285.014"/>
</svg>